<svg width="48" height="48" viewBox="0 0 48 48" xmlns="http://www.w3.org/2000/svg">
    <g fill="none" fill-rule="evenodd">
        <path d="M0 0h48v48H0z"/>
        <path d="M26.5 39.667h1.667V17.493l8.216 4.45.103.048a4.45 4.45 0 0 1 2.51 3.795l.004.195v9.231l-.004.18c-.093 2.316-1.982 4.177-4.333 4.271l-.188.004-7.975-.001H13.583c-2.469 0-4.483-1.908-4.58-4.298L9 35.188v-19.09c0-1.705.99-3.255 2.54-4.009l.182-.083 8.333-3.62c2.313-1.003 5.022.015 6.05 2.275.227.5.36 1.037.388 1.583l.007.235v27.188zM20.25 28h-5a1.25 1.25 0 0 0-.12 2.494l.12.006h5a1.25 1.25 0 0 0 0-2.5zm14.167 0h-3.75v2.5h3.75a1.25 1.25 0 0 0 0-2.5zM20.25 21.333h-5a1.25 1.25 0 0 0-.12 2.495l.12.005h5a1.25 1.25 0 0 0 0-2.5z" fill="#25292C" fill-rule="nonzero"/>
    </g>
</svg>
