<svg width="64" height="64" viewBox="0 0 64 64" xmlns="http://www.w3.org/2000/svg">
    <g fill="none" fill-rule="evenodd">
        <path d="M0 0h64v64H0z"/>
        <path d="M0 0h64v64H0z"/>
        <g fill="#25292C" fill-rule="nonzero">
            <path d="M46 1.5H18a6 6 0 0 0-6 6v17.47c0 11.326 8.941 20.53 20 20.53s20-9.204 20-20.53V7.5a6 6 0 0 0-6-6zm-28 4h28a2 2 0 0 1 2 2v17.47c0 9.142-7.177 16.53-16 16.53s-16-7.388-16-16.53V7.5a2 2 0 0 1 2-2zM9.344 12.5a2 2 0 0 1 .15 3.995l-.15.005H4.092l.014.15c.296 2.894 1.2 5.291 2.596 7.118l.203.257a9.517 9.517 0 0 0 3.297 2.616 2 2 0 0 1-1.716 3.613 13.515 13.515 0 0 1-4.683-3.704C1.342 23.527 0 19.404 0 14.5a2 2 0 0 1 1.85-1.995L2 12.5h7.344zM62 12.5a2 2 0 0 1 2 2c0 4.904-1.342 9.027-3.803 12.05a13.515 13.515 0 0 1-4.683 3.704 2 2 0 0 1-1.716-3.613 9.517 9.517 0 0 0 3.297-2.616c1.511-1.856 2.488-4.343 2.799-7.375l.013-.15h-5.251a2 2 0 0 1-1.995-1.85l-.005-.15a2 2 0 0 1 1.85-1.995l.15-.005H62z"/>
            <path d="M32 41.5a2 2 0 0 1 1.995 1.85l.005.15v8a2 2 0 0 1-3.995.15L30 51.5v-8a2 2 0 0 1 2-2z"/>
            <path d="M39.025 49.5H24.594a3 3 0 0 0-2.555 1.428l-4.305 7a3 3 0 0 0 2.555 4.572h23.353a3 3 0 0 0 2.505-4.652l-4.617-7a3 3 0 0 0-2.505-1.348zm-.538 4 3.298 5H22.077l3.075-5h13.335zM29.167 15.872l-3.382.49-.13.025c-1.133.261-1.56 1.695-.704 2.533l2.452 2.396-.584 3.324-.017.127c-.11 1.168 1.135 2.024 2.2 1.457L32 24.625l2.998 1.599.115.055c1.075.467 2.276-.449 2.068-1.637l-.58-3.325 2.449-2.398.09-.095c.76-.88.26-2.288-.924-2.461l-3.365-.491-1.508-3.039c-.553-1.114-2.143-1.11-2.69.007l-1.486 3.032zm2.841 1.019.506 1.02.071.127a1.5 1.5 0 0 0 1.056.69l1.145.166-.848.832-.11.12a1.5 1.5 0 0 0-.318 1.21l.187 1.075-.992-.529-.15-.07a1.5 1.5 0 0 0-1.261.07l-.987.526.188-1.07.02-.163a1.5 1.5 0 0 0-.449-1.17l-.848-.83 1.163-.167a1.5 1.5 0 0 0 1.132-.825l.495-1.012z"/>
        </g>
    </g>
</svg>
