<svg width="65" height="64" viewBox="0 0 65 64" xmlns="http://www.w3.org/2000/svg">
    <g fill="none" fill-rule="evenodd">
        <path d="M.5 0h64v64H.5z"/>
        <g fill="#25292C" fill-rule="nonzero">
            <path d="M32.5 1c-17.12 0-31 13.88-31 31 0 17.12 13.88 31 31 31 17.12 0 31-13.88 31-31 0-17.12-13.88-31-31-31zm0 4c14.912 0 27 12.088 27 27s-12.088 27-27 27-27-12.088-27-27 12.088-27 27-27z"/>
            <path d="M13.696 40.202h2.07v-7.167h5.79v-2.07h-5.79v-5.098h5.79v-2.07h-7.86zM30.928 33.303c1.082-1.082 1.63-2.408 1.63-3.942 0-1.528-.548-2.85-1.63-3.933a5.644 5.644 0 0 0-3.3-1.625l-4.677-.005v16.404h2.07v-5.269h1.905l3.383 5.27h2.504l-3.683-5.68a5.568 5.568 0 0 0 1.798-1.22zm-5.907-7.426h1.975c.968 0 1.773.333 2.462 1.019.687.685 1.022 1.491 1.022 2.465 0 .974-.335 1.782-1.023 2.47-.689.689-1.494 1.023-2.461 1.023H25.02v-6.977zM33.29 40.202h8.81v-2.07h-6.741v-5.097h6.74v-2.07h-6.74v-5.098h6.74v-2.07h-8.81zM52.304 25.867v-2.07h-8.81v16.405h8.81v-2.07h-6.74v-5.097h6.74v-2.07h-6.74v-5.098z"/>
        </g>
        <path d="M.5 0h64v64H.5z"/>
    </g>
</svg>
