<svg width="64" height="64" viewBox="0 0 64 64" xmlns="http://www.w3.org/2000/svg">
    <g fill="none" fill-rule="evenodd">
        <path d="M0 0h64v64H0z"/>
        <path d="M0 0h64v64H0z"/>
        <g transform="translate(3 3)" fill="#25292C">
            <path d="M29-2c17.12 0 31 13.88 31 31 0 17.12-13.88 31-31 31C11.88 60-2 46.12-2 29c0-4.123.806-8.137 2.353-11.866a2 2 0 0 1 3.695 1.532A26.912 26.912 0 0 0 2 29c0 14.912 12.088 27 27 27s27-12.088 27-27S43.912 2 29 2c-3.595 0-7.088.702-10.334 2.048A2 2 0 1 1 17.134.353 30.911 30.911 0 0 1 29-2z" fill-rule="nonzero"/>
            <path d="M29 13a2 2 0 1 1 0 4c-6.627 0-12 5.373-12 12s5.373 12 12 12 12-5.373 12-12a2 2 0 1 1 4 0c0 8.837-7.163 16-16 16s-16-7.163-16-16 7.163-16 16-16z" fill-rule="nonzero"/>
            <circle cx="39" cy="19" r="4"/>
        </g>
    </g>
</svg>
