<svg width="16" height="16" viewBox="0 0 16 16" xmlns="http://www.w3.org/2000/svg">
    <g fill="none" fill-rule="evenodd">
        <path d="M0 0h16v16H0z"/>
        <g transform="translate(2 2)" stroke="#25292C">
            <rect width="5" height="5" rx="1"/>
            <rect y="6.995" width="5" height="5" rx="1"/>
            <rect x="7" width="5" height="5" rx="1"/>
            <rect x="7" y="6.995" width="5" height="5" rx="1"/>
        </g>
        <g fill="#25292C" fill-rule="nonzero">
            <path d="M6 1.5H3A1.5 1.5 0 0 0 1.5 3v3A1.5 1.5 0 0 0 3 7.5h3A1.5 1.5 0 0 0 7.5 6V3A1.5 1.5 0 0 0 6 1.5zm-3 1h3a.5.5 0 0 1 .5.5v3a.5.5 0 0 1-.5.5H3a.5.5 0 0 1-.5-.5V3a.5.5 0 0 1 .5-.5zM6 8.495H3a1.5 1.5 0 0 0-1.5 1.5v3a1.5 1.5 0 0 0 1.5 1.5h3a1.5 1.5 0 0 0 1.5-1.5v-3a1.5 1.5 0 0 0-1.5-1.5zm-3 1h3a.5.5 0 0 1 .5.5v3a.5.5 0 0 1-.5.5H3a.5.5 0 0 1-.5-.5v-3a.5.5 0 0 1 .5-.5zM13 1.5h-3A1.5 1.5 0 0 0 8.5 3v3A1.5 1.5 0 0 0 10 7.5h3A1.5 1.5 0 0 0 14.5 6V3A1.5 1.5 0 0 0 13 1.5zm-3 1h3a.5.5 0 0 1 .5.5v3a.5.5 0 0 1-.5.5h-3a.5.5 0 0 1-.5-.5V3a.5.5 0 0 1 .5-.5zM13 8.495h-3a1.5 1.5 0 0 0-1.5 1.5v3a1.5 1.5 0 0 0 1.5 1.5h3a1.5 1.5 0 0 0 1.5-1.5v-3a1.5 1.5 0 0 0-1.5-1.5zm-3 1h3a.5.5 0 0 1 .5.5v3a.5.5 0 0 1-.5.5h-3a.5.5 0 0 1-.5-.5v-3a.5.5 0 0 1 .5-.5z"/>
        </g>
    </g>
</svg>
