<svg width="64" height="64" viewBox="0 0 64 64" xmlns="http://www.w3.org/2000/svg">
    <g fill="none" fill-rule="evenodd">
        <path d="M0 0h64v64H0z"/>
        <path d="M0 0h64v64H0z"/>
        <path d="M31.295 0c3.53 0 7.105 2.421 9.7 7.016.724 1.281 1.372 2.72 1.939 4.32 2.39-.54 4.595-.8 6.611-.789a2 2 0 0 1-.022 4c-1.644-.009-3.464.198-5.457.633.616 2.548 1.07 5.406 1.354 8.582 2.609 1.825 4.882 3.642 6.83 5.443 1.973-2.188 3.333-4.282 4.115-6.253a2 2 0 0 1 3.718 1.476c-.978 2.464-2.64 5.011-5.017 7.617 1.35 1.5 2.472 2.985 3.372 4.451 2.88 4.696 3.345 9.14 1.586 12.212-1.773 3.097-5.744 4.953-11.166 4.813-1.828-.047-3.809-.313-5.943-.806a27.265 27.265 0 0 1-1.92 4.269C38.4 61.579 34.826 64 31.296 64c-3.508 0-7.101-2.515-9.705-7.176a27.857 27.857 0 0 1-1.856-4.122c-2.156.501-4.157.771-6.002.82-5.421.14-9.392-1.717-11.165-4.814-1.76-3.073-1.295-7.516 1.586-12.212.9-1.467 2.024-2.954 3.376-4.455-1.425-1.561-2.595-3.104-3.517-4.624-2.825-4.654-3.215-9.034-1.445-12.125l.13-.218c1.827-2.947 5.826-4.679 11.18-4.515 1.805.055 3.75.316 5.837.792a27.97 27.97 0 0 1 1.876-4.175C24.194 2.515 27.787 0 31.295 0zm.001 48.468-.397.188c-2.584 1.217-5.02 2.2-7.307 2.954.449 1.202.947 2.29 1.49 3.263C27.03 58.36 29.374 60 31.295 60c1.974 0 4.288-1.567 6.218-4.984a23.065 23.065 0 0 0 1.544-3.387c-2.42-.795-5.007-1.845-7.76-3.16zM10.363 34.87l-.252.288a25.978 25.978 0 0 0-2.548 3.43c-2.175 3.546-2.48 6.465-1.525 8.134.978 1.708 3.541 2.906 7.59 2.801 1.508-.039 3.158-.255 4.951-.657-.634-2.56-1.104-5.428-1.396-8.607-2.606-1.813-4.875-3.61-6.82-5.389zm41.866.003-.079.071c-1.923 1.75-4.164 3.522-6.732 5.308-.284 3.193-.744 6.065-1.365 8.623 1.777.397 3.414.61 4.909.648 4.05.105 6.613-1.093 7.59-2.801.956-1.67.65-4.588-1.524-8.133-.743-1.212-1.674-2.452-2.799-3.716zm-11.155 8.222-.2.123a114.367 114.367 0 0 1-3.546 2.092l-1.189.664-.297.164a56.158 56.158 0 0 0 4.359 1.66c.346-1.446.638-3.013.873-4.703zm-19.534.015.027.185c.235 1.607.524 3.103.863 4.49a56.635 56.635 0 0 0 4.32-1.647l-.298-.164-1.19-.664a117.49 117.49 0 0 1-3.722-2.2zm9.756-23.113-.218.11a96.77 96.77 0 0 0-3.883 2.088l-1.127.647a99.063 99.063 0 0 0-5.05 3.138 90.854 90.854 0 0 0-.19 6.021c0 2.129.064 4.138.19 6.03a102.903 102.903 0 0 0 5.05 3.129c.384.223.765.442 1.142.656l1.124.629.555.303 1.096.586c.442.233.879.459 1.311.678a102.645 102.645 0 0 0 5.227-2.852 112.7 112.7 0 0 0 1.662-.987l1.067-.654c.804-.5 1.58-.998 2.327-1.493A94.05 94.05 0 0 0 41.763 32a93.93 93.93 0 0 0-.184-6.017 99.21 99.21 0 0 0-5.056-3.142c-.386-.224-.768-.443-1.147-.658l-1.13-.63a93.257 93.257 0 0 0-2.95-1.557zm14.423 8.941.01.36a106.01 106.01 0 0 1-.01 5.793l.51-.392a55.15 55.15 0 0 0 3.188-2.668 55.377 55.377 0 0 0-3.698-3.093zm-28.846-.002-.02.016a55.214 55.214 0 0 0-3.674 3.075 55.901 55.901 0 0 0 3.695 3.063 101.618 101.618 0 0 1-.001-6.154zM6.038 17.28c-.982 1.714-.728 4.567 1.393 8.061.76 1.254 1.731 2.541 2.917 3.859 1.948-1.803 4.223-3.62 6.834-5.446.29-3.161.755-6.014 1.383-8.563-1.732-.38-3.336-.589-4.81-.634-4.12-.126-6.765 1.06-7.717 2.723zm34.171-1.04-.195.063a55.79 55.79 0 0 0-4.154 1.573 109.654 109.654 0 0 1 5.214 3.032 49.545 49.545 0 0 0-.865-4.668zm-17.789.013-.018.077a49.031 49.031 0 0 0-.862 4.563 113.58 113.58 0 0 1 5.192-3.018 55.83 55.83 0 0 0-4.312-1.622zM57.503 10.5a5 5 0 1 1 0 10 5 5 0 0 1 0-10zM31.295 4c-1.921 0-4.265 1.64-6.213 5.127a23.65 23.65 0 0 0-1.503 3.299c2.413.785 4.986 1.82 7.716 3.117 2.753-1.307 5.345-2.35 7.774-3.136a23.002 23.002 0 0 0-1.556-3.423C35.583 5.567 33.27 4 31.295 4z" fill="#25292C" fill-rule="nonzero"/>
    </g>
</svg>
