<svg width="64" height="64" viewBox="0 0 64 64" xmlns="http://www.w3.org/2000/svg">
    <g fill="none" fill-rule="evenodd">
        <path d="M0 0h64v64H0z"/>
        <path d="M0 0h64v64H0z"/>
        <g fill="#25292C">
            <path d="M32 2c4.3 0 8.334 1.706 11.314 4.686a2 2 0 1 1-2.829 2.829A11.954 11.954 0 0 0 32 6c-6.627 0-12 5.373-12 12s5.373 12 12 12 12-5.373 12-12a2 2 0 1 1 4 0c0 8.837-7.163 16-16 16s-16-7.163-16-16c0-5.996 3.298-11.222 8.18-13.962l.52-.28A15.932 15.932 0 0 1 32 2zM50.5 38h-37c-6.627 0-12 5.373-12 12s5.373 12 12 12h37c6.627 0 12-5.373 12-12s-5.373-12-12-12zm-37 4h37a8 8 0 1 1 0 16h-37a8 8 0 1 1 0-16z" fill-rule="nonzero"/>
            <path d="M28.4 51.005 32 43l3.6 8.005L32 55z"/>
        </g>
    </g>
</svg>
