<svg width="64" height="64" viewBox="0 0 64 64" xmlns="http://www.w3.org/2000/svg">
    <g fill="none" fill-rule="evenodd">
        <path d="M0 0h64v64H0z"/>
        <path d="M0 0h64v64H0z"/>
        <path d="M53.527 27.679a2 2 0 0 1 1.994 1.85l.006.15v18.953c0 3.262-2.301 6.103-5.489 6.94-4.72 1.242-9.531 3.027-13.918 5.432a7.542 7.542 0 0 1-7.24 0c-4.387-2.405-9.199-4.19-13.918-5.431-3.104-.816-5.367-3.531-5.484-6.684l-.005-.257V29.679a2 2 0 0 1 3.995-.15l.005.15v18.953c0 1.404 1.04 2.687 2.506 3.072 5.011 1.318 10.118 3.212 14.824 5.793a3.542 3.542 0 0 0 3.394 0c4.706-2.58 9.813-4.475 14.825-5.793 1.402-.368 2.414-1.558 2.499-2.89l.006-.182V29.679a2 2 0 0 1 2-2zM29.942 2.513a5 5 0 0 1 4.116 0l27.747 12.53a3 3 0 0 1 1.76 2.536l.006.15v19.437a2 2 0 0 1-3.994.15l-.006-.15V21.52L34.058 33.043a5 5 0 0 1-3.868.104l-.248-.104-27.747-12.53a3 3 0 0 1 0-5.47zm2.47 3.645a1 1 0 0 0-.824 0L5.86 17.778l25.73 11.62a1 1 0 0 0 .708.043l.115-.043 25.728-11.62z" fill="#25292C" fill-rule="nonzero"/>
    </g>
</svg>
