<svg width="48" height="48" viewBox="0 0 48 48" xmlns="http://www.w3.org/2000/svg">
    <g fill="none" fill-rule="evenodd">
        <path d="M0 0h48v48H0z"/>
        <g fill="#25292C" fill-rule="nonzero">
            <path d="M25.583 40v-5.462c0-1.421.534-2.775 1.505-3.813a5.563 5.563 0 0 1 3.677-1.756l.465-.033.096.456a1.166 1.166 0 0 0 2.24.14l.164-.47.48.13a6.953 6.953 0 0 1 5.14 6.706V37a3 3 0 0 1-3 3H25.582zm3.175-13.137c-.88-.746-1.443-1.808-1.673-3.155l-.008-.045V16.11l.963 1.282c.215.285.848 1.08 1.287 1.45.362.157.788.233 1.3.233 1.02 0 2.199-.317 3.238-.596.92-.247 1.789-.481 2.479-.481.29 0 .537.04.754.122l.351.133-.006.376c-.01.54 0 4.943 0 4.987 0 1.22-.578 2.346-1.628 3.173-.99.78-2.284 1.209-3.644 1.209-1.378 0-2.527-.382-3.413-1.135zm3.413.064c2.317 0 4.202-1.485 4.202-3.31 0-.154-.007-3.29-.003-4.549h-.026c-.55 0-1.352.216-2.201.445-1.103.296-2.354.632-3.517.632-.698 0-1.29-.117-1.81-.36l-.057-.026-.05-.04a5.544 5.544 0 0 1-.561-.533v4.385c.386 2.165 1.813 3.356 4.023 3.356z"/>
            <path d="M32.466 31.385a2.238 2.238 0 0 1-2.235-2.236v-1.133c0-.313.064-.616.19-.902l.177-.402.429.096c.354.08.74.12 1.144.12.553 0 1.094-.086 1.61-.256l.416-.137.216.382c.19.336.289.714.289 1.099v1.133a2.238 2.238 0 0 1-2.236 2.236zm-1.163-3.443a1.198 1.198 0 0 0-.002.074v1.133c0 .643.523 1.165 1.165 1.165.643 0 1.165-.522 1.165-1.165v-1.133c0-.063-.005-.125-.015-.186-.47.111-.954.168-1.445.168a6.66 6.66 0 0 1-.868-.056z"/>
            <path d="M35.99 26.84c-.151 0-.304-.007-.455-.02l-1.278-.121.984-.823c.73-.61 1.132-1.413 1.132-2.259 0-.154-.007-3.29-.003-4.549h-.026c-.55 0-1.352.216-2.201.445-1.103.296-2.354.632-3.517.632-.698 0-1.29-.117-1.81-.36l-.057-.026-.05-.04a5.54 5.54 0 0 1-.561-.533v4.385c.147.825.444 1.514.883 2.049l.59.72-.919.148c-.247.04-.486.06-.71.06-.858 0-1.538-.29-2.02-.859-.911-1.076-.746-2.808-.692-3.218-.039-.3-.157-1.37-.059-2.713.153-2.091.769-3.848 1.78-5.08 1.155-1.406 2.809-2.167 4.917-2.262.178-.008.356-.012.534-.012 2.097 0 3.74.6 4.882 1.783 2.189 2.267 2.052 6.139 1.962 8.7l-.017.483c.068 1.05-.187 1.893-.757 2.505-.581.622-1.48.966-2.532.966z"/>
            <path d="m13.104 22.092-1.045-.791c-.602-.456-1.292-1.74-1.717-3.195-.53-1.815-.56-3.594-.085-5.01.42-1.252 1.217-2.237 2.368-2.928 1.36-.815 3.215-1.208 5.512-1.165 2.24.042 4.03.491 5.319 1.336a5.152 5.152 0 0 1 2.229 3.112c.493 1.917-.03 3.938-.387 4.972-.412 1.198-1.13 2.583-1.706 2.915l-.825.475.023-.952c.01-.45.03-1.624-.028-2.818-.058-1.22-.17-1.891-.266-2.255-2.237.982-4.095 1.46-5.666 1.46-1.921 0-3.01-.73-3.745-1.337-.523 1.383-.32 3.91-.174 4.884l.193 1.297z"/>
            <path d="M17.704 26.397c-1.554 0-2.862-.49-3.886-1.456-.997-.94-1.67-2.285-1.998-3.995l-.282-1.47.183.153v-2.28l.002-.023c.081-.963.279-1.728.586-2.276l.025-.045.034-.04a3.06 3.06 0 0 1 .235-.247l.347-.327.364.308.174.149c.686.593 1.541 1.33 3.341 1.33 1.51 0 3.435-.535 5.725-1.59l.399-.184.258.356c.214.296.512.953.62 3.232.033.686.042 1.365.04 1.911l.106-.065-.107 1.081a5.989 5.989 0 0 1-2.045 3.938 6.28 6.28 0 0 1-4.121 1.54zm-4.731-5.186c.654 2.66 2.32 4.116 4.73 4.116 2.6 0 4.758-1.864 5.084-4.36l.002-.106c.011-.45.03-1.624-.027-2.818-.058-1.22-.17-1.891-.266-2.255-2.237.982-4.095 1.46-5.666 1.46-1.92 0-3.01-.729-3.743-1.336-.144.383-.244.88-.296 1.482v2.216c.048.695.12 1.18.12 1.185l.062.416z"/>
            <path d="M17.81 30.024a2.238 2.238 0 0 1-2.235-2.235v-1.36c0-.34.074-.665.22-.97l.19-.393.424.107a5.29 5.29 0 0 0 1.295.154c.492 0 .983-.07 1.459-.21l.418-.121.204.384c.171.323.26.683.26 1.049v1.36a2.238 2.238 0 0 1-2.235 2.235zm-1.16-3.71a1.2 1.2 0 0 0-.005.115v1.36c0 .642.523 1.165 1.165 1.165.643 0 1.166-.523 1.166-1.165v-1.36c0-.054-.004-.108-.011-.16a6.268 6.268 0 0 1-1.261.128c-.362 0-.714-.028-1.054-.082z"/>
            <path d="M26.62 40H12a3 3 0 0 1-3-3v-2.863c0-1.852.742-3.513 2.146-4.804 1.244-1.142 2.975-1.944 4.877-2.258l.622-.102v.816c0 .642.523 1.165 1.165 1.165.643 0 1.166-.523 1.166-1.165v-.82l.623.104c1.768.296 3.333 1.03 4.527 2.122 1.358 1.242 2.196 2.879 2.489 4.864l.006.039V40z"/>
        </g>
    </g>
</svg>
