<svg width="16" height="16" viewBox="0 0 16 16" xmlns="http://www.w3.org/2000/svg">
    <g fill="none" fill-rule="evenodd">
        <path d="M0 0h16v16H0z"/>
        <g fill="#D7E5F0" fill-rule="nonzero">
            <path d="M8 1.5a6.48 6.48 0 0 1 4.596 1.904.5.5 0 1 1-.707.707A5.48 5.48 0 0 0 8 2.5a5.48 5.48 0 0 0-3.89 1.61A5.48 5.48 0 0 0 2.5 8a5.48 5.48 0 0 0 1.61 3.89A5.48 5.48 0 0 0 8 13.5a5.48 5.48 0 0 0 3.89-1.61A5.48 5.48 0 0 0 13.5 8a.5.5 0 1 1 1 0 6.48 6.48 0 0 1-1.904 4.596A6.48 6.48 0 0 1 8 14.5a6.48 6.48 0 0 1-4.596-1.904A6.48 6.48 0 0 1 1.5 8a6.48 6.48 0 0 1 1.904-4.596A6.48 6.48 0 0 1 8 1.5z"/>
            <path d="M10.646 5.846a.5.5 0 0 1 .765.638l-.057.07-3.6 3.6a.5.5 0 0 1-.638.057l-.07-.057-1.8-1.8a.5.5 0 0 1 .638-.765l.07.057L7.4 9.093l3.246-3.247z"/>
        </g>
    </g>
</svg>
