<svg width="65" height="64" viewBox="0 0 65 64" xmlns="http://www.w3.org/2000/svg">
    <g fill="none" fill-rule="evenodd">
        <path d="M.5 0h64v64H.5z"/>
        <g fill="#25292C" fill-rule="nonzero">
            <path d="M27.539 2.532 9.289 12.96a10 10 0 0 0-5.039 8.683v20.714a10 10 0 0 0 5.039 8.683l18.25 10.428a10 10 0 0 0 9.922 0l18.25-10.428a10 10 0 0 0 5.039-8.683V21.643a10 10 0 0 0-5.039-8.683L37.461 2.532a10 10 0 0 0-9.922 0zm7.938 3.473 18.25 10.428a6 6 0 0 1 3.023 5.21v20.714a6 6 0 0 1-3.023 5.21l-18.25 10.428a6 6 0 0 1-5.954 0l-18.25-10.428a6 6 0 0 1-3.023-5.21V21.643a6 6 0 0 1 3.023-5.21l18.25-10.428a6 6 0 0 1 5.954 0z"/>
            <path d="M25.333 18a5.333 5.333 0 1 0 0 10.667 5.333 5.333 0 0 0 0-10.667zm0 4a1.333 1.333 0 1 1 0 2.667 1.333 1.333 0 0 1 0-2.667zM40.667 35.333a5.333 5.333 0 1 0 0 10.667 5.333 5.333 0 0 0 0-10.667zm0 4a1.333 1.333 0 1 1 0 2.667 1.333 1.333 0 0 1 0-2.667zM43.586 18.586a2 2 0 0 1 2.945 2.701l-.117.127-24 24a2 2 0 0 1-2.945-2.701l.117-.127 24-24z"/>
        </g>
        <path d="M.5 0h64v64H.5z"/>
    </g>
</svg>
