<svg width="48" height="48" viewBox="0 0 48 48" xmlns="http://www.w3.org/2000/svg">
    <g fill="none" fill-rule="evenodd">
        <path d="M0 0h48v48H0z"/>
        <g fill="#25292C" fill-rule="nonzero">
            <path d="M37.845 29.4h-.652v-4.336c0-.353-.159-.687-.458-.899-.282-.211-.635-.282-1.005-.229-3.983-.018-7.842 1.005-11.437 3.084-3.613-2.062-7.473-3.084-11.456-3.066a1.24 1.24 0 0 0-1.004.229 1.135 1.135 0 0 0-.458.899v4.335c-.036 0-.07-.018-.106-.018h-.582a.7.7 0 0 0-.687.688v2.555a.7.7 0 0 0 .687.687h.582c.035 0 .07 0 .106-.017v4.106c0 .6.475 1.18 1.128 1.357.07.018.14.018.211.035 3.472.106 7.067 1.093 10.733 2.926.229.194.51.264.828.264h.035c.282 0 .582-.088.776-.264 3.665-1.833 7.278-2.82 10.732-2.926.088 0 .141-.017.212-.035.652-.194 1.128-.758 1.128-1.357v-4.142h.652a.7.7 0 0 0 .687-.687v-2.555c.035-.335-.282-.635-.652-.635z"/>
            <path d="M19.235 21.698 18 22.35c-.44.247-.6.81-.352 1.234.246.44.81.599 1.233.352l2.15-1.145a7.999 7.999 0 0 0 3.331.704 8.036 8.036 0 0 0 3.049-.599l2.097 1.216a.779.779 0 0 0 .44.106.847.847 0 0 0 .776-.476.902.902 0 0 0-.352-1.233l-1.11-.653a8.268 8.268 0 0 0 3.33-6.626c0-4.547-3.7-8.23-8.23-8.23-4.547 0-8.23 3.7-8.23 8.23a8.192 8.192 0 0 0 3.102 6.468zm5.058-12.266c1.603 0 3.154.652 4.264 1.833.987 1.057 1.604 2.45 1.604 4.018 0 .81-.158 1.586-.476 2.291a5.847 5.847 0 0 1-5.392 3.578 5.829 5.829 0 0 1-5.834-5.834c0-3.225 2.608-5.886 5.834-5.886z"/>
        </g>
    </g>
</svg>
