<svg width="48" height="48" viewBox="0 0 48 48" xmlns="http://www.w3.org/2000/svg">
    <g fill="none" fill-rule="evenodd">
        <path d="M0 0h48v48H0z"/>
        <path d="M20.829 21.121c-.198 0-.39-.014-.572-.043a2.11 2.11 0 0 1-.484-.133 1.106 1.106 0 0 1-.567-.537c-.1-.191-.176-.41-.24-.69a36.097 36.097 0 0 1-.095-.426l-.006-.028-.066-.297-.004-.018-.005-.018a1.94 1.94 0 0 0-.017-.058l-.002-.005a1.917 1.917 0 0 1-.042-.147 3.338 3.338 0 0 0-.03-.108l-.076-.259-.226-.148a.06.06 0 0 1-.028-.044l-.003-.018a.356.356 0 0 1-.008-.069l.014-.455.004-.12c.001-.037.024-.064.061-.074l.037-.01c.053-.014.111-.03.167-.037.31-.042.64-.087.974-.127.359-.043.74-.062 1.237-.063H20.94c.533 0 1.078.05 1.618.15.307.056.606.153.87.239.195.063.344.102.484.129.076.014.154.022.233.023l-.638 1.646a4.234 4.234 0 0 1-.21.464c-.165.311-.382.582-.645.806-.156.133-.346.23-.598.306a4.099 4.099 0 0 1-.897.157 4.507 4.507 0 0 1-.327.012zm-.662-.313c.07.018.135.032.2.042a3.556 3.556 0 0 0 1.461-.083c.263-.07.47-.179.635-.336.122-.116.23-.257.338-.443.178-.303.306-.62.382-.945.057-.242.076-.457.058-.658l-.035-.403-.36-.187a1.637 1.637 0 0 0-.418-.135l-.036-.008c-.342-.08-.703-.116-1.208-.124h-.024l-.124.007c-.12.006-.268.014-.414.026a4.627 4.627 0 0 0-.805.131l-.432.117-.103.434c-.014.06-.02.116-.03.191v.004l-.006.056a2.25 2.25 0 0 0-.007.5c.023.235.059.545.133.855.056.239.14.437.252.605.06.089.126.159.205.215l.193.14h.145zm7.37.293c-.312 0-.598-.026-.874-.08a2.435 2.435 0 0 1-.712-.247c-.3-.164-.547-.41-.735-.733a5.707 5.707 0 0 1-.34-.683l-.68-1.629c.163-.003.332-.033.517-.092.09-.028.177-.059.261-.088.08-.028.16-.057.24-.082a5.508 5.508 0 0 1 1.018-.214c.375-.047.759-.07 1.173-.07.175 0 .35.004.526.012l.027.001c.28.013.57.026.857.046.356.024.708.077 1.098.138.022.004.043.01.063.015l.013.003c.032.008.054.023.057.07l.005.074.001.017c.004.053.008.103.01.156.002.094.003.188.003.288l-.11-.199-.156.538-.001.001-.073.256-.268.924.047-.026c-.06.24-.13.488-.226.723-.066.16-.14.292-.227.402-.14.177-.317.29-.576.368-.2.06-.421.094-.678.105a5.816 5.816 0 0 1-.26.006zm-.345-3.584c-.11.005-.245.01-.377.018a5.339 5.339 0 0 0-1.195.223l-.458.158-.037.483a1.651 1.651 0 0 0-.005.085c-.004.19.028.373.078.588.101.44.278.812.539 1.138.215.269.486.439.806.507.351.075.672.111.98.111h.034c.201-.002.438-.012.673-.076.213-.058.36-.134.474-.245.106-.103.19-.237.255-.41.135-.354.21-.742.222-1.153v-.024c.004-.136-.001-.272-.007-.403l-.002-.063a1.69 1.69 0 0 0-.009-.125l-.012-.103-.039-.095a1.418 1.418 0 0 0-.014-.033l-.141-.318-.335-.094c-.39-.108-.78-.146-1.282-.171l-.033-.002-.115.004zm3.368 9.833-4.59 8.352-.68-1.99 1.256-2.511-2.513-2.511-2.514 2.51 1.257 2.512-.81 2.037-4.461-8.4S8 32.379 8 37.356C8 38.73 8.567 40 9.954 40h28.217c1.38 0 1.96-1.259 1.96-2.625 0-4.674-9.572-10.025-9.572-10.025zm1.742-10.287-.006-.392-.33-.221c-.04-.028-.08-.052-.119-.076-.674-5.792-.628-9.209-7.392-8.198-2.371.354-4.96-.377-6.433.692-1.853 1.732-1.984 4.33-1.48 7.38a3.457 3.457 0 0 0-.335.203l-.33.22-.006.393c-.017 1.016.111 1.873.387 2.53.251.597.621 1.041 1.117 1.309.589 1.99 1.435 3.484 2.494 4.558 1.155 1.172 2.543 1.838 4.115 2.101l.14.023.141-.029c1.74-.365 3.13-1.06 4.236-2.22 1.028-1.076 1.794-2.528 2.356-4.467.477-.275.834-.723 1.075-1.315.265-.653.387-1.495.37-2.49zm-1.792 1.924c-.135.33-.32.547-.552.627l-.383.134-.105.387c-.504 1.86-1.178 3.21-2.08 4.154-.853.891-1.934 1.441-3.295 1.748-1.196-.224-2.252-.745-3.128-1.634-.94-.957-1.692-2.344-2.213-4.25l-.111-.406-.406-.125c-.238-.072-.426-.285-.563-.614-.137-.324-.22-.738-.255-1.231.372-.056.789-.162.994-.027a6.19 6.19 0 0 0 .07-.237l.01.002.03-.163c.113-.442.239-3.214.352-3.66.044-.13.06-.279.146-.383.544.738 4.666.822 7.06-.83l-.448 1.205.455.09.51-.813-.064.569.484.064.301-.934c.593.338 1.25.79 1.835.544.195.439.345 3.109.443 3.624l.126.661.22-.013.103.344c.26-.031.486-.036.71-.04-.034.48-.116.886-.246 1.207z" fill="#25292C" fill-rule="nonzero"/>
    </g>
</svg>
