<svg width="64" height="64" viewBox="0 0 64 64" xmlns="http://www.w3.org/2000/svg">
    <g fill="none" fill-rule="evenodd">
        <path d="M0 0h64v64H0z"/>
        <g fill="#25292C" fill-rule="nonzero">
            <path d="M45.545 3.871h-27.09a6 6 0 0 0-4.71 2.282L2.503 20.393a6 6 0 0 0 .218 7.696l24.787 27.985a6 6 0 0 0 8.984 0L61.279 28.09a6 6 0 0 0 .218-7.696L50.255 6.153a6 6 0 0 0-4.71-2.282zm-27.09 4h27.09a2 2 0 0 1 1.57.76l11.242 14.24a2 2 0 0 1-.073 2.566L33.497 53.422a2 2 0 0 1-2.994 0L5.716 25.437a2 2 0 0 1-.073-2.566l11.242-14.24a2 2 0 0 1 1.57-.76z"/>
            <path d="M42.118 22.445a2 2 0 0 1 3.099 2.524l-.11.134-11.612 13.064a2 2 0 0 1-2.872.122l-.118-.122-11.613-13.064a2 2 0 0 1 2.87-2.782l.12.124L32 33.83l10.118-11.384z"/>
        </g>
        <path d="M0 0h64v64H0z"/>
    </g>
</svg>
